<?xml version="1.0" encoding="utf-8"?>
<!-- Generator: Adobe Illustrator 21.1.0, SVG Export Plug-In . SVG Version: 6.00 Build 0)  -->
<svg version="1.1" id="Layer_1" xmlns="http://www.w3.org/2000/svg" xmlns:xlink="http://www.w3.org/1999/xlink" x="0px" y="0px"
	 viewBox="0 0 300 300" style="enable-background:new 0 0 300 300;" xml:space="preserve">
<style type="text/css">
	.st0{fill:#CD181E;}
	.st1{fill:#FFFFFF;}
</style>
<title>LE34-logo</title>
<g id="Layer_2">
	<g id="Layer_1-2">
		<rect class="st0" width="300" height="300"/>
		<polygon class="st1" points="58.1,110.3 72.8,110.3 72.8,151 98.5,151 98.5,164.1 58.1,164.1 		"/>
		<polygon class="st1" points="104,110.3 146.7,110.3 146.7,123 118.5,123 118.5,131.1 144,131.1 144,142.9 118.5,142.9 
			118.5,151.4 147,151.4 147,164.1 104,164.1 		"/>
		<path class="st1" d="M149.8,155.6l9.2-9.4c3.8,3.9,7.8,6.2,12.7,6.2c4.2,0,6.8-2.1,6.8-5.5v-0.1c0-3.5-3.1-5.5-8.6-5.5h-6.2
			l-2.1-7.8l12.2-11.2h-20.3v-12.1h38.4V121l-12.7,11c7.6,1.7,13.7,6,13.7,15.2v0.1c0,10.9-8.6,17.9-20.5,17.9
			C162.1,165.2,154.9,161.5,149.8,155.6"/>
		<path class="st1" d="M223.4,153.6h-25.7l-2.4-10.5l27.5-33.2h14.9v32.6h6.7v11.1h-6.7v10.5h-14.2V153.6z M223.4,142.6v-15.5
			l-12.7,15.5L223.4,142.6z"/>
	</g>
</g>
</svg>
